<?xml version="1.0" encoding="utf-8"?>
<!-- Generator: Adobe Illustrator 22.1.0, SVG Export Plug-In . SVG Version: 6.00 Build 0)  -->
<svg version="1.1" id="Warstwa_1" xmlns="http://www.w3.org/2000/svg" xmlns:xlink="http://www.w3.org/1999/xlink" x="0px" y="0px"
	 viewBox="0 0 595.3 841.9" style="enable-background:new 0 0 595.3 841.9;" xml:space="preserve">
<style type="text/css">
	.st0{fill:#FFFFFF;stroke:#000000;stroke-miterlimit:10;}
</style>
<g>
	<circle class="st0" cx="297.4" cy="428" r="274.1"/>
	<path d="M397.2,451.1c0,0-0.9,0-1.4,0l-0.8-24.3c-0.1-1.5-1.6-2.4-2.9-1.8c-2.5,1.2-5.6,2.8-5.5,3.5c0.2,0.9-0.1,14.8,0.2,20.2
		c0.1,1.2-0.9,2.1-2,2.1h-16.1c-1.1,0-2-0.9-2-2c0-6.3,0.3-24.2,0.1-26.5c-0.1,0-1.4,0-1.5,0c0,1.9-0.2,20.3-0.2,26.7
		c0,1.1-0.9,2-2,2l-1.1,0c-1.1,0-2-0.9-2-2c0-5.5,0-21.1,0-28.2c0-0.6-0.2-1.2-0.3-1.8c-0.3,0-1.2,0-1.5,0c-0.3,1.3-0.3,2.5-0.3,3.7
		c0,4.8,0,9.7,0,14.5c0,3.8,0,7.6-0.1,11.7c0,1.1-0.9,2-2,2l-10.3,0c-1.1,0-2-0.9-2-2l0-9.3c0-3.8,0.4-14.5,0.4-18.3
		c-0.1-3.7-3.3-4.2-3.3-1c0,7.3-0.2,23.1-0.2,28.7c0,1.1-0.9,2-2,2l-15.7-0.1c-1.1,0-2-0.9-2-2v-31.5c-2.2-0.4-2.9,0.4-2.9,2.2
		c-0.1,6.8-0.2,13.6-0.2,20.4c0,2.9,0,5.9,0,8.9c0,1.1-0.9,2-2,2l-17.6,0c-1.1,0-2-0.9-2-2l0-31.9c0-1.1,0.8-1.9,1.9-2
		c2.1-0.2,4.3-0.4,6.4-0.4c10-0.1,19.9,0,29.9,0c0.5,0,1,0,1.4,0.1c6.7,0.5,13.4,0.8,20.1,1.6c2.9,0.3,5.7,1.1,8.7,1.9
		c1.3,0.3,2.5-0.6,2.5-2l0-5.3c0-1-0.7-1.9-1.7-2c-23.7-3.8-45.6-3.5-69.2-3.4c-0.5-1.1-0.3-1.9,1.2-2c3.4-0.2,6.8-0.5,10.2-0.5
		c7-0.1,13.9-0.3,20.9,0c11.4,0.5,22.8,0.6,35,2.5c1,0.1,3.8,0.7,3.8,0.7s-0.2-1.6-0.2-1.9l-10.9-2.9c-0.8-0.2-1.3-0.8-1.5-1.6
		c-0.2-1-0.4-2.1-0.4-3.3c-0.1-7.2-0.1-14.4-0.1-21.6c0-3.4,2.8-7.9,6.1-7.9c5.4,0,16.3,2,16.3,2c2.6,0.1,3,0.7,3,4c0,10,0,20,0,30
		c0,1.4,0,2.1,0,3.8c1.4-0.3,2.4,0.3,3.8,0c0-1.5,0-2.9,0-4.3c-0.3-9.7-0.5-19.4-0.8-29.1c-0.1-2.6,0.9-3.9,3.3-3.8
		c4.7,0.3,9.4,0.8,14.1,1.3c1.5,0.1,2.7,0.2,2.9,1.7c0.1,0.6,0.1,2.1,0,2.7c-0.1,8.1-0.3,16.3-0.4,24.4c0,1.9,0,3.9,0,6.2
		c1.3-0.4,2.3,0.4,3.1,0.2c0-6.9-0.1-14.6-0.2-21.3c0-2.4-0.2-4.8-0.3-7.2c-0.1-3.5,2.6-5.9,6-5.3c4.2,0.8,8.4,1.6,12.5,2.5
		c1.4,0.3,2.3,1.2,2.2,2.8c-0.1,2,0,3.5,0,6.4c0,0,2.5,0.4,3,0.1c1.5-0.8-1.5-8.4,2.8-7.4c1.2,0.3,9.6,2.1,10.5,2.3
		c0.1,0,0.1,0,0.2,0l13.6,2.6c2.1,0.1,3.8,1.9,3.8,4c0,2.9,0,3.2,0,6.6c0,1.1,0.3,2,1.4,2c0,0,5.4,1,7.6,1.4c5,0.8,12,1.1,19.2,3.1
		c3.7,1,6.9,2.3,7.5,2.9l-26.2-2.2c-7-0.2-14.6-0.3-21.3-0.3c-6.8,0-13.6,0-20.3,0c-0.5,1.9,0.3,2.3,1.6,2.4
		c11.9,0.3,23.8,0.6,35.8,0.8c8.4,0.2,25.2,1.5,26.6,1.7c3.9,0.5,6,1.1,6.1,1.1c1.6,0.2,4.2,1.3,5.2,2.2c-1.1-0.2-10.8-1.2-22.9-1.6
		c-22-0.7-52-0.7-52.1-0.7c0.2,0,0.1,1.3,0.7,1.3l23.4,0.8l14.7,0.5c0,0,15.2,0.5,23.1,1.1c3.8,0.3,7.7,0.8,11.6,1.3
		c2.4,0.3,4.4,1.8,5.5,3.9l0.6,1.2c0.8,4.5,0.7,9.5,0.9,14.1c0.3,6.4,0.5,12.7,0.5,19.3c0,1.6-0.5,2.6-2.1,2.6h0
		c-1.7,0-2.1-0.9-2.1-2.7c0.2-9.3-0.6-21.7-0.6-24.6c0-0.5-0.1-7.1-0.5-7.3c-3.4-1.3-22.3-1.1-37.7-1.6c-1.7-0.1-3.4,1.5-4.2,2.4
		c-0.5,0.6-3.9,1.8-4.2,1.2c-1.9-3.3-2.8-5.7-11.6-6.9c-18.6-2.6-33.3-1.3-39.9,0.5c-5.3,1.4-7.6,3.5-8.3,6.4 M385.2,414.8"/>
	<path d="M334.6,399.1c-0.2-2.7-0.5-6.4,0.2-9.5c0.2-0.8,1-1.3,1.8-1.1l5.6,1.1c0.7,0.1,1.2,0.7,1.2,1.4l0.3,7.7
		c1.2,0.3,1.8,0.3,3,0.6l0-8.4c0-0.5-0.3-1-0.7-1.3c-2.6-1.7-5.2-2.7-8.1-3.2c-9.2-1.6-20.5-3.3-30-3.9c-3.9-0.2-12.4,0.2-12.4,0.2
		l-0.2-2.6c0,0,8.4,0,12.6,0.2c4.4,0.2,9.4,0.5,13.8,0.9c4.3,0.4,9.5,1.7,12.5,2.2c4,0.6,8.2,1.8,12.1,1.9c-4-3.7-9-4.6-13.9-5.5
		c-10.5-1.9-21.1-2.2-31.7-2.1c-1,0-3.9-0.2-5.1-0.2l-0.3-7.4c0-0.4,0-2.7,0-2.7s-0.4-5.1,1.1-5.6l20.6,1.2c1.8,0,2.3,3.8,2.7,5.6
		l1.2,8.2c1,0.1,2.1,0.2,3.7,0.4c0-1.5,0-2.8,0-4c-0.1-4.4,0.7-9,5.2-8.9c5.5,0.1,17.6,1.3,17.6,1.3c2.9,0.9,4.2,6.4,3.8,9
		c-0.3,2.4-0.7,4.7-0.6,7.1c0.4,9.3-0.3,10.8,0,15.8c0,0.5,0.1,2.7,0,3c0,0-2.2-0.9-8.5-1.5"/>
	<path d="M391.8,327.8c0,0,4.4,0.7,6.8,1.2c0.5,0.1,0.9,0.6,0.9,1.1c0,4.3,0,8.7,0,12.9c0.9,0.1,1.5,0.2,2.2,0.3v-12.5
		c0-0.7,0.6-1.2,1.3-1.1c5.4,1.1,12.1,2,12.1,2l-0.2-1.6l-3-1c0,0-2.7-0.7-2.7-0.7c-7.9-1.7-15.8-3.7-23.8-4.8
		c-10.7-1.5-21.5-2.6-32.3-3.7c-5.4-0.5-10.9-0.9-16.4-1.1c-12.9-0.4-25.8-0.6-38.7-1c0,0-2.5,0.5-2.7-2c19.8-1,39.4,0.6,59,2
		c19.6,1.4,56.1,8.1,56.1,8.1s1.2-0.2-2.4-2.6c-1.4-0.9-7.3-2.4-7.2-2.7c0-0.2,4.7,0.5,6.9,0.9c3,0.5,6.3,1.7,7.9,2.6
		c0.4,0.2,0.8,0.6,0.8,1c0.2,6.7,0.5,13.1,0.7,19.5c0,0.5,0.3,0.9,0.8,1c15.1,3.5,16.1,3.9,17.3,4.7c1.1,0.7,2.7,2.5,0.1,1.3
		c-3.4-1.5-17.3-4.8-20.6-5.3c-8.3-1.2-16.6-2.2-24.9-3.2c-1.2-0.1-2.4-0.2-3.5-0.5c-3.1-0.6-2.9-0.6-3.2-4.2
		c-0.2-2.4-0.3-6.6-0.3-6.6l-0.2-4.2c0-0.7,0.5-1.2,1.2-1.2c1.2,0.1,3,0.3,4.4,0.6c0.5,0.1,0.9,0.5,0.9,1c0.3,4.7,0.5,9.1,0.7,13.8
		c0.7,0.1,1.4,0.1,2.4,0.2c-0.1-1.3-0.1-3.4-0.1-3.4l1.6,0.1c0,0,0,0,0.1-0.9c-1.2-0.3-1.6-0.4-1.6-0.4v-1.2l1.8,0.2
		c0-0.1-0.1-1.1-0.1-1.1c-0.6,0-1.8-0.1-1.8-0.1 M409.8,344.1c0.2,0,0.4,0,0.5,0c0-3.3,0-6.5,0-9.8c-0.2,0-0.4,0-0.5,0
		C409.8,337.5,409.8,340.8,409.8,344.1z"/>
	<path d="M415.5,444.2l-0.2,4.4c-0.1,1.4-1.2,2.4-2.5,2.4h-3.1c-1.3,0-2.4-1-2.5-2.2l-0.4-3.2c-0.9,0-1.7,0.1-2.4,0
		c-2.9-0.3-4.4-1.9-4.6-4.8c-0.1-1.2,0-2.4,0-3.5c0-4.2,0-8.3,0-12.5c0-3.2,0.7-4.2,3.9-4.5c4.5-0.4,8.9,0.2,13.4,0.1
		c3.2,0.2,4.3,0.3,5.5,0.5c1.2,0.2,2.1,1.2,2.2,2.4c0.2,5.2,0.4,10.2,0.3,15.2c-0.1,4.1-1.9,5.4-6.1,5.6
		C417.9,444.1,416.9,444.2,415.5,444.2z"/>
	<path d="M335.3,311.6c0.2-2.4,0.1-5.9,0.1-8.6c0-0.6,0.5-1.1,1.1-1c2.3,0.1,5,0.3,7.4,0.3c0.6,0,1,0.5,1,1.1c0,3.3-0.2,6.2,0.1,9.3
		c0.2,0,0.5,0,0.7,0v-8.8c0-0.6,0.5-1.1,1.2-1.1c3.8,0.3,2.8,0.1,7.3,0.3c0.5,0,1,0.5,1,1c0.1,3-0.3,6.1-0.1,9.5
		c0,0.6-0.5,1.1-1.1,1.1c-3.7-0.2-7.5-0.4-11.2-0.6c-8.4-0.6-16.7-1.4-25.1-1.7c-6.9-0.2-13.4-0.1-20.3,0c-0.4,0-1.5,0.1-2.2-0.1
		c0-3.9,0-7.5,0-11.2c0.2,0,1,0.1,1.2,0.1c0,3.2-0.1,6.1,0.1,9.2c0.1,0,0.6,0.1,0.7,0.1c0,0,0-5.2,0.1-8.4c0-0.6,0.3-1,0.8-1
		c2.2-0.1,4.3,0.1,6.4,0.2c0.6,0,1.3,0.5,1.3,1l0.1,8.8c0.3,0,0.6,0,0.9,0v-8.6c0-0.6,0.5-1.1,1.1-1.1h6.3c0.6,0,1.1,0.5,1.1,1.1
		v8.5c0.3,0,0.7-0.1,1-0.1v-8.4c0-0.6,0.2-1,0.8-1h6.6c0.6,0,0.7,0.4,0.7,1v8.1c0.2,0,0.8,0.1,1,0.1v-8.1c0-0.6,0.5-1.1,1.1-1.1h6.3
		c0.6,0,1,0.5,1.1,1c0.2,3.2,0,5.8,0.2,8.9"/>
	<path d="M337.9,292.9v-4.5c0-1.2,1-2.1,2.2-1.9l3.2,0.4c0.9,0.1,1.6,0.9,1.7,1.8l0.3,4.1c0.1,1.1-0.8,2.1-1.9,2.1
		c-7.3,0-14.5-1-21.7-1.3c-7.4-0.3-16.3-0.6-24.3-0.9c-1.2,0-2.1-1.1-2.1-2.3c0-1.2,0-2.4,0-3.6c0-1.2,1-2.3,2.2-2.3
		c2.3-0.1,4.6,0,5.8,0c0.5,0,0.9,0.4,0.9,0.9c0,1.7-0.1,5.5-0.1,6.1h1.3c0,0,0.1-3.2,0.1-5.3c0-1,0.8-1.8,1.9-1.8c1.5,0,3,0,3.9,0
		c0.5,0,0.9,0.4,0.9,0.9l0,6.2l0.9,0l0.4-6.1c0-0.5,0.4-0.9,0.9-0.8c1,0.1,2.7,0.1,4.5,0.3c0.5,0,0.9,0.4,0.8,0.9
		c-0.1,1.8-0.2,5.7,0,5.7c0.8,0.1,1.1,0.1,1.1,0.1c0.2,0,0.4-6.5,0.6-6.5c1.9,0.1,4.8,0.3,6.1,0.5c0.5,0.1,0.9,0.4,0.9,0.9l0.4,5.9
		c0.2,0,0.8,0,0.9,0l0.3-4.6c0.1-1.2,0.2-2,1.4-1.9c0.7,0,3,0.1,3.7,0.2c1,0.1,1.2,0.6,1.3,1.6l0.4,5
		C337,292.8,337.7,292.9,337.9,292.9z"/>
	<path d="M295.2,343.7c-0.7-2.9,1.7-2.6,3.1-2.6c2.2,0.1,4.4,0.3,5.9,0.3c8.1,0.1,14.2-0.2,21.3,0.1c12.2,0.5,24.3,1,36.5,1.9
		c19.7,1.4,39.4,3.9,58.8,7.5c4.2,0.8,8.6,1.5,12.5,3.2c2.1,0.9,4.5,2.7,5.4,3.6c0.6,0.8,0.2,0.7,0,0.6c-12.9-5.1-14.9-4-30.9-7.2
		c-16.2-2.6-32.2-4.1-48.3-5.6c-9.6-0.9-19.3-1.1-29-1.5c-6.6-0.3-13.1-0.3-19.7-0.3"/>
	<path d="M470.2,440.6c-0.4-4.9-0.5-12.4-0.1-17.2c0.1-1.7,1.6-3.1,3.3-3.1l1.8,0.2c1.8,0,3.3,1.5,3.3,3.3V440
		c0,2.4-1.8,4.3-4.2,4.5l0,0C471.9,444.7,470.4,443,470.2,440.6z"/>
	<path d="M323.2,332.2c-0.8-0.2-0.6-0.1-2.4-0.3c0-0.5,0-1.4,0-1.4h2.7c0,0,0.2-0.6,0.3-1.3c-1.3-0.2-1.3-0.2-3-0.3
		c0-0.4,0-1.1,0-1.1l3.1-0.3c0,0,0.1-0.5,0.3-1.3c-1.6,0-2.3-0.1-3.4-0.1c0-0.7,0-1.5,0-1.5l5.9-0.2l0.3-1c-1.1,0-5.5-0.2-6.2-0.2
		c0,0-0.1-0.3,0-0.8c4.7,0.1,6.7,0.2,10,0.4c0.5,0,0.9,0.4,0.9,0.9v13.3c0,0.5-0.4,1-0.9,0.9c-3.4,0-7.8-0.2-7.8-0.2"/>
	<line x1="393.7" y1="319.4" x2="392.1" y2="319.4"/>
	<path d="M367.4,315.5l0-10.6c0-0.4,0.4-0.8,0.8-0.7l6.8,0.9c0.3,0,0.6,0.3,0.6,0.7c0.2,4.3,0,5.9,0.2,9.7c0.4,0,0.7,0.3,1.1,0.3
		c0.3-3.4,0.1-5.8,0.2-9.5c0-0.4,0.4-0.7,0.8-0.7l5.3,0.8c0.3,0,0.6,0.3,0.6,0.7v9.4c0.4,0,0.8,0.3,1.1,0.3c0-3.2-0.1-6.5-0.1-10
		c0,0,3,0.5,3.7,0.7l2.7,0.7l1.9,0.8c0.6,0.2,4.7,1.8,6.2,6.2c1.1,3,0.7,5.4,0.7,5.4"/>
	<path d="M388.7,305.9c-9.3-2.2-15.3-2.9-22.6-3.7c-11.2-1.3-22.5-1.9-33.7-2.6c-11.5-0.7-34.6-1.5-34.6-1.5s-3.2-0.1-2.6-2.5
		c2,0,4,0,6.1,0c9.1,0.2,19.8,0.5,27.1,0.9c24.7,1.2,34,2.5,48.8,5c6.6,1.1,9.9,1.9,15.2,3.4c1.1,0.3,1.8,1.2,1.8,1.2
		c0.7,1.1,0.7,1.8,0.7,1.8S390.3,306.3,388.7,305.9z"/>
	<path d="M464.9,427.7c0,4.3,0.2,8.8,0.2,9c0.3,1.5,0.6,9.1,3.7,11.7l2.3,2.9c0,0-13.9-0.1-20.3,0c-0.1-0.3-0.3-2.6-0.4-2.9
		c1.4-1.7,2.6-1.4,4.2-2.8c1.9-1.7,2.5-0.9,2.5-6.2c0-6.2,0.3-19.8-0.8-26.9c1.8,0,5,0,5,0c0.4,4.7,0.4,22.9,0.4,30.3
		c0.3,0,0.6,0,0.9,0.1c0.2-2.7,0.2-5.7,0.3-8.4C463,428.2,462.9,427.2,464.9,427.7z"/>
	<path d="M295.3,282.4l-0.1-2.4c0,0,7.2,0,9.9,0.1c5.6,0.2,11.3,0.3,16.9,0.8c14.6,1.3,17.8,1.1,34.3,4.3c3.6,0.7,6.4,1.2,10.6,2.9
		c2.6,1,3.9,2.4,3.9,5.1c0,1.4,0,2.8,0,4.7c-3.6-0.3-6.7-0.6-10-1c0-2.6,0-6.2,0-8.5c0.8-0.2-6.7-2-22.5-3.9
		C327.6,283.2,318.1,281.9,295.3,282.4z"/>
	<path d="M322.7,399.1h-16.7c-0.7,0-1.2-0.5-1.2-1.2v-10.8c0-1.2,2.5-0.7,3.2-0.7c5.6,0,4.4-0.1,4.6,4c0.1,2,0.1,7.5,0.1,7.5
		s0.3,0.2,1,0.1c0.2-2.7,0.2-10,0.2-10c0-0.7,0.9-1.3,1.7-1.3c3.1,0,4.3-0.1,6.3,0.2c0.5,0.1,0.4,0.9,0.4,1.4
		c0.2,3.5,0.4,7.5,0.6,10.8L322.7,399.1z"/>
	<path d="M296.3,322.2h8.1c0.6,0,1.1,0.5,1.1,1.1l-0.1,13.4c0,0.6-0.5,1.1-1.1,1.1h-8c-0.6,0-1.1-0.5-1.1-1.1v-13.4
		C295.2,322.7,295.7,322.2,296.3,322.2z"/>
	<path d="M295.2,258.4c0-0.9,0-1.3,0-1.3s20.7,1.6,25.2,3.3c0,0,0.2-1.2-0.6-1.7c-0.9-0.7-3.4-1.6-4.8-2.1c-6.3-2-12.5-3.1-19.7-3.4
		l-0.1-24.3h1c0,0,0.1,16.4,0.1,21.2c1,0.2,4.7,0.7,5.9,1c3.4,0.8,6,1.5,9,2.7c2.5,0.9,2.8,1,5,1.8c5.9,2.2,6.7,3,5.4,9.3
		c-0.1,0.5-0.2,1-0.3,2.1c-2-0.2-3.6-0.4-5.7-0.7c0.3-1.5,0.2-1.9,0.4-3.4c1.6,0.2,3.1,0.3,4.3,0.6c0.1-0.3,0.2-1.1-0.5-1.8
		c-1.2-1.2-12-2.3-13.1-2.4C303.4,258.9,295.2,258.4,295.2,258.4z"/>
	<path d="M333.3,334.1c2.2,0,4.4,0,6.5,0c0-0.3,0.1-1.2,0.1-1.5c-2.2-0.2-3.3-0.1-6.7-0.4c0-0.4,0.1-1,0.1-1.2
		c1.7-0.1,2.4-0.1,4.2-0.3c0,0,0.2-0.6,0.1-1.3c-0.8-0.2-3.7-0.3-4.4-0.4c0,0,0.1-0.1,0.1-1c0.6-0.3,4.5-0.5,4.5-0.5
		s0.2-0.8,0.2-1.2c-1.4-0.2-2.3-0.2-4.8-0.3c0.1-0.5,0-1,0-1l4.8-0.1c0,0,0.2,0,0.3-0.7c-1.9-0.2-3.1-0.2-5-0.3
		c0-0.7,0.3-0.9,0.3-0.9s5.2,0.4,8.9,0.5c0.5,0,0.8,0.4,0.8,0.8c0.1,5.1,0,8.1-0.2,12.8c0,0.5-0.8,1-1.3,1c-3.6-0.1-5,0-8.6-0.1"/>
	<path d="M379.6,326.1l0.7,13.9c0,0.8-0.6,1.4-1.4,1.3c-2.8-0.3-5.3-0.5-7.8-0.8c-0.1-0.2,0-0.9-0.1-1.2c0.9,0.1,2.2,0.1,2.2,0.1
		s0-0.3-0.1-1.4c-0.7-0.2-0.9-0.2-1.9-0.3c0-0.7-0.1-2.1-0.1-2.1s1.3,0.2,2.2,0.2l-0.1-0.9l-2.1-0.4c0,0-0.3-5.3-0.2-9.5"/>
	<path d="M356.1,304.3c0-0.6,0.6-1.1,1.2-1c2.7,0.2,6.2,0.5,6.2,0.5l2.3,0.3c0,0,0.2,6.4,0.1,10.6c0,0.6-0.6,1-1.2,1l-7.6-0.8
		c-0.6-0.1-0.9-0.5-0.9-1.1C356.3,310.5,356,307.5,356.1,304.3z"/>
	<path d="M324.5,398.8c-0.3-4-0.3-8.1-0.2-11.6c1-0.9,3.3-0.3,3.4-0.3c6.6,0.3,5.5,0.7,5.5,8.1c0,1.3,0,2.6,0,4.1"/>
	<path d="M295.2,270.6c0.1-2.3,0.1-2.3,0.1-2.3s17.3,0.2,25.2,0.8c5.7,0.4,11.5,0.9,17.1,2.3c2.5,0.6,4.5,1.3,6.7,2.1
		c0.6,0.2,1,1.1,1.3,2.1C329,270.5,312.7,271.2,295.2,270.6z"/>
	<path d="M315.5,275.1c0,0.7,0,1.3,0,2.1c0,0.6-0.4,1-1,1.1c-6,0.2-12.2-0.2-18.2,0c-0.6,0-1.1-0.4-1.1-1v-3.4c0-1,0.9-1.8,1.9-1.7
		l16.9,1.2C314.8,273.5,315.5,274.2,315.5,275.1z"/>
	<path d="M301.5,399.2c-2,0.2-2.9,0-5-0.1c-0.6,0-1-0.5-1-1c0-2.4,0-8.9,0-11.3c0-0.6,0.5-1.1,1.1-1l5.1,0.2c0.5,0,1,0.4,1,1
		c0.1,3.1-0.1,8.1,0,10.9C302.8,398.5,302.2,399.1,301.5,399.2z"/>
	<path d="M327.8,274.2c3.4,0.3,4.3,0.1,4.3,4.8c-4.8-0.5-9.5-0.3-14.4-0.7c-0.4,0-0.7-0.4-0.7-0.8v-4L327.8,274.2z"/>
	<path d="M314.9,266.2c-6.6-0.5-13.2-1.1-19.7-1.1c0-1.3,0-1.4,0-2.9c1.7,0,7.2,0.2,8.4,0.3c5.2,0.2,11.3,0.5,11.3,0.5
		S315.2,263.8,314.9,266.2z"/>
	<path d="M346.7,287.4c0.4,0.1,3.6,0.4,5.4,0.5c0.5,0.1,0.6,0.9,0.7,1.4c0.1,1.4,0.3,3.6,0.5,5.2c0.1,0.6-0.4,1.2-1.1,1.1
		c-1.5-0.2-2.5-0.4-4.1-0.5c-0.5-0.1-1-0.5-1-1"/>
	<path d="M355.2,288.6l4.2,0.6l0.2,7.4l-4.8-0.5c-0.2-2.3-0.3-3.8-0.5-6.3C354.4,289.1,354.7,288.5,355.2,288.6z"/>
	<path d="M371.9,410c4.7-0.1,13.3,4.8,13.3,4.9l-0.1-0.1c0.1,0.4,0,6.6,0,6.6l-13.3-1.4"/>
	<path d="M431.2,395c-0.7,0-1.4,0-2.1,0c-1.2,0-2.2-1-2.2-2.2v-3.4c0-1,0.8-1.9,1.9-2c0.7-0.1,2.4,0.4,3.1,0.3c0,0,1.1,0.3,1.1,2
		c0,1.4-0.1,2.3,0,3.5C433.1,394.2,432.2,395,431.2,395z"/>
	<path d="M409.8,344.1c0-3.3,0-9.1,0-12.4c0.2,0,0.4,0,0.5,0c0,3.3,0,9.1,0,12.4C410.2,344.1,410,344.1,409.8,344.1z"/>
	<path d="M309.6,333.4l3.8-0.2c0,0.3,0,0.5,0,0.8c-1.3,0.1-2.5,0.1-3.8,0.2C309.6,333.9,309.6,333.9,309.6,333.4z"/>
	<path d="M358.7,333.6c0-0.4,0.1-1,0.1-1.2c1.7-0.1,2.4-0.1,4.2-0.3c0,0,0.2-0.6,0.1-1.3c-0.8-0.2-3.7-0.3-4.4-0.4
		c0,0,0.1-0.1,0.1-1c0.6-0.3,4.5-0.5,4.5-0.5s0.2-0.8,0.2-1.2c-1.4-0.2-1.9-0.1-4.4-0.3c0.1-0.5,0-1.1,0-1.1l4.4-0.1
		c0,0,0.2,0,0.3-0.7c-1.9-0.2-2.7-0.3-4.6-0.4c0-0.7-0.1-0.8-0.1-0.8s5,0.3,8.7,0.5c0.6,0,1,0.5,1.1,1.1c0.2,4.1,0.4,8.9,0.5,13
		c0,0.7-0.5,1.2-1.2,1.2c-3.5-0.2-5.9-0.6-9.4-0.7"/>
	<path d="M346.2,334.3c2.2,0,4.4,0,6.5,0c0-0.3,0.2-0.3,0.2-0.7c-2.2-0.2-4.5,0-6.7-0.4c0-0.4,0.1-1,0.1-1.2
		c1.7-0.1,2.4-0.1,4.2-0.3c0,0,0.2-0.6,0.1-1.3c-0.8-0.2-3.7-0.3-4.4-0.4c0,0,0.1-0.1,0.1-1c0.6-0.3,4.5-0.5,4.5-0.5
		s0.2-0.8,0.2-1.2c-1.4-0.2-1.9-0.1-4.4-0.3c0.1-0.5,0-1.1,0-1.1l1.1-0.1c0,0,0.2,0,0.3-0.7l-1.3-0.2c0-0.7-0.1-1.3-0.1-1.3
		s4.9,0.4,8.6,0.6c0.6,0,1.1,0.5,1.1,1.1c0.2,4,0.4,8.4,0.6,12.4c0,0.7-0.6,1.3-1.3,1.3c-3.4-0.2-5.8-0.6-9.3-0.8"/>
	<path d="M308.9,322.2h8.1c0.6,0,1.1,0.5,1.1,1.1l-0.1,13.4c0,0.6-0.5,1.1-1.1,1.1h-8c-0.6,0-1.1-0.5-1.1-1.1v-13.4
		C307.8,322.7,308.3,322.2,308.9,322.2z"/>
	<path d="M481.7,440.6c-0.4-4.9-0.5-12.4-0.1-17.2c0.1-1.7,1.6-3.1,3.3-3.1l1.8,0.2c1.8,0,3.3,1.5,3.3,3.3V440
		c0,2.4-1.8,4.3-4.2,4.5l0,0C483.4,444.7,481.9,443,481.7,440.6z"/>
	<path d="M492.4,440.6c-0.4-4.9-0.5-12.4-0.1-17.2c0.1-1.7,1.6-3.1,3.3-3.1l1.8,0.2c1.8,0,3.3,1.5,3.3,3.3V440
		c0,2.4-1.8,4.3-4.2,4.5l0,0C494.1,444.7,492.6,443,492.4,440.6z"/>
	<path d="M443.7,444.4l-0.2,4.4c-0.1,1.4-1.2,2.4-2.5,2.4h-3.1c-1.3,0-2.4-1-2.5-2.2l-0.4-3.2c-0.9,0-1.7,0.1-2.4,0
		c-2.9-0.3-4.4-1.9-4.6-4.8c-0.1-1.2,0-2.4,0-3.5c0-4.2,0-8.3,0-12.5c0-3.2,0.7-4.2,3.9-4.5c4.5-0.4,8.9,0.2,13.4,0.1
		c3.2,0.2,4.3,0.3,5.5,0.5c1.2,0.2,2.1,1.2,2.2,2.4c0.2,5.2,0.4,10.2,0.3,15.2c-0.1,4.1-1.9,5.4-6.1,5.6
		C446.1,444.3,445.1,444.3,443.7,444.4z"/>
	<path d="M443.1,395c-0.7,0-1.4,0-2.1,0c-1.2,0-2.2-1-2.2-2.2v-3.4c0-1,0.8-1.9,1.9-2c0.7-0.1,2.4,0.4,3.1,0.3c0,0,1.1,0.3,1.1,2
		c0,1.4-0.1,2.3,0,3.5C444.9,394.2,444.1,395,443.1,395z"/>
	<path d="M454.4,395c-0.7,0-1.4,0-2.1,0c-1.2,0-2.2-1-2.2-2.2v-3.4c0-1,0.8-1.9,1.9-2c0.7-0.1,2.3,1.1,3.1,1c0,0,1.2-0.5,1.1,1.1
		c0,1.4-0.1,2.4,0,3.6C456.3,394.1,455.5,395,454.4,395z"/>
	<path d="M88.5,506.8c2.3,1.4,6,2.6,9.8,2.6c4.7,0,7.3-2.2,7.3-5.5c0-3.1-2-4.9-7.2-6.7c-6.7-2.4-11-5.9-11-11.8
		c0-6.7,5.5-11.6,14.4-11.6c4.4,0,7.6,1,9.7,2l-1.7,5.9c-1.5-0.8-4.3-1.9-8.1-1.9c-4.7,0-6.7,2.5-6.7,4.9c0,3.1,2.3,4.6,7.8,6.7
		c7,2.6,10.4,6.2,10.4,12c0,6.5-4.9,12.2-15.3,12.2c-4.3,0-8.8-1.2-11-2.6L88.5,506.8z"/>
	<path d="M185.5,480.6H174v-6.2h30.6v6.2h-11.7v34.3h-7.4V480.6z"/>
	<path d="M262.8,476.5c-0.4-0.4-0.3-1.2,0.2-1.4c1.6,0.1,4.3,0.2,6.2,0.2c1.7,0,4.8-0.1,6.9-0.2c0.5,0.2,0.5,1,0.1,1.4l-1.4,0.1
		c-1.3,0.1-2,0.5-2,1c0,0.7,1.3,3.8,3.1,8c3.4,7.5,6.9,15,10.4,22.4c1.4-3,3.1-6.4,4.6-9.7c0.5-1.1,1-2.2,1-2.5
		c0-0.3-0.2-0.8-0.5-1.6c-2.1-4.8-4.3-9.6-6.6-14.4c-0.9-1.9-1.8-3.1-3.8-3.3l-1.4-0.1c-0.4-0.5-0.4-1.2,0.1-1.4
		c1.7,0.1,4,0.2,6.4,0.2c3,0,5.2-0.1,6.6-0.2c0.4,0.2,0.5,1,0.1,1.4l-1.6,0.1c-2.3,0.2-2.4,0.6-1.3,3.3c1.3,2.9,2.9,6.7,4.6,10.4
		c1.1-2.3,2.2-4.6,3.5-7.9c2.2-5.1,1.9-5.8-0.1-5.9l-1.8-0.1c-0.4-0.6-0.3-1.3,0.1-1.4c1.6,0.1,3.4,0.2,5.7,0.2c2,0,4.4-0.1,5.8-0.2
		c0.4,0.2,0.5,1,0.1,1.4l-1.7,0.1c-2.5,0.2-3.6,2.9-4.9,5.3c-1.3,2.2-3.8,7.4-4.7,9.5c-0.3,0.6-0.5,1.2-0.5,1.4
		c0,0.2,0.1,0.7,0.4,1.4c2,4.6,4.2,9.1,6.1,13.7c1.9-4.2,3.7-8.4,5.4-12.7c1.2-2.9,4.4-10.9,4.8-11.9c0.8-2.2,1.8-4.7,1.8-5.5
		c0-0.8-0.7-1.3-2-1.4l-1.7-0.1c-0.5-0.5-0.4-1.2,0.1-1.4c2.3,0.1,3.9,0.2,5.8,0.2c2.3,0,4-0.1,5.6-0.2c0.5,0.2,0.5,1,0.1,1.4
		l-1.1,0.1c-3,0.3-3.5,2.1-7.2,10.4l-4.4,10.1c-2.6,6.1-5.1,12-7.5,18.4c-0.2,0.1-0.4,0.2-0.7,0.2c-0.3,0-0.6-0.1-0.8-0.2
		c-1.9-5.3-5.4-12.8-7.3-17c-2.2,4.4-5.8,12.1-7.5,17c-0.2,0.1-0.4,0.2-0.7,0.2c-0.3,0-0.6-0.1-0.9-0.2c-1-2.5-3.4-7.9-4.2-9.7
		c-3.8-8.3-7.6-16.7-11.5-25c-1.1-2.5-1.9-4.1-4.4-4.3L262.8,476.5z"/>
	<path d="M389.1,474.4V498c0,7.9,3.3,11.6,8.3,11.6c5.4,0,8.5-3.7,8.5-11.6v-23.6h7.4v23.1c0,12.5-6.4,18-16.2,18
		c-9.4,0-15.5-5.2-15.5-17.9v-23.2H389.1z"/>
	<path d="M479.7,475c2.8-0.5,6.9-0.9,11.2-0.9c5.8,0,9.7,1,12.5,3.2c2.2,1.9,3.5,4.7,3.5,8.2c0,5.2-3.6,8.8-7.4,10.1v0.2
		c2.9,1.1,4.7,3.9,5.7,7.8c1.3,5,2.4,9.7,3.2,11.3h-7.6c-0.6-1.2-1.6-4.5-2.7-9.5c-1.2-5.3-3.1-7-7.3-7.1H487v16.6h-7.3V475z
		 M487,492.9h4.4c5,0,8.1-2.6,8.1-6.7c0-4.4-3.1-6.5-7.9-6.5c-2.3,0-3.8,0.2-4.6,0.4V492.9z"/>
	<path d="M86.9,553.5c1.1,0.7,2.7,1.3,4.4,1.3c2.5,0,4-1.3,4-3.3c0-1.8-1-2.8-3.6-3.8c-3.1-1.1-5.1-2.8-5.1-5.5c0-3,2.5-5.2,6.2-5.2
		c1.9,0,3.4,0.5,4.2,0.9l-0.7,2c-0.6-0.4-1.9-0.9-3.6-0.9c-2.6,0-3.6,1.6-3.6,2.9c0,1.8,1.2,2.7,3.8,3.7c3.3,1.3,4.9,2.8,4.9,5.7
		c0,3-2.2,5.6-6.7,5.6c-1.9,0-3.9-0.6-4.9-1.3L86.9,553.5z"/>
	<path d="M105,539.4h-5.9v-2.1h14.3v2.1h-5.9v17.1H105V539.4z"/>
	<path d="M131.2,546.7c0,6.6-4,10.1-9,10.1c-5.1,0-8.7-4-8.7-9.8c0-6.1,3.8-10.1,8.9-10.1C127.8,536.9,131.2,541,131.2,546.7z
		 M116.2,547c0,4.1,2.2,7.8,6.2,7.8c4,0,6.2-3.6,6.2-8c0-3.9-2-7.9-6.2-7.9C118.3,539,116.2,542.8,116.2,547z"/>
	<path d="M137.6,556.5l-4.9-19.3h2.6l2.3,9.7c0.6,2.4,1.1,4.8,1.4,6.7h0.1c0.3-1.9,0.9-4.2,1.6-6.7l2.6-9.7h2.6l2.3,9.8
		c0.5,2.3,1.1,4.6,1.3,6.6h0.1c0.4-2.1,0.9-4.3,1.5-6.7l2.5-9.7h2.5l-5.5,19.3h-2.6l-2.4-10c-0.6-2.5-1-4.3-1.3-6.3h-0.1
		c-0.3,1.9-0.8,3.8-1.5,6.3l-2.7,10H137.6z"/>
	<path d="M160.2,550.5l-2,6.1h-2.6l6.6-19.3h3l6.6,19.3h-2.7l-2.1-6.1H160.2z M166.5,548.5l-1.9-5.5c-0.4-1.3-0.7-2.4-1-3.5h-0.1
		c-0.3,1.1-0.6,2.3-1,3.5l-1.9,5.6H166.5z"/>
	<path d="M174.6,537.5c1.3-0.2,3.1-0.4,4.8-0.4c2.7,0,4.4,0.5,5.6,1.6c0.9,0.9,1.5,2.2,1.5,3.7c0,2.5-1.6,4.2-3.6,4.9v0.1
		c1.5,0.5,2.3,1.9,2.8,3.9c0.6,2.7,1.1,4.5,1.5,5.3h-2.6c-0.3-0.6-0.7-2.2-1.3-4.6c-0.6-2.7-1.6-3.7-3.9-3.7H177v8.3h-2.5V537.5z
		 M177,546.3h2.5c2.7,0,4.4-1.5,4.4-3.7c0-2.5-1.8-3.6-4.4-3.6c-1.2,0-2,0.1-2.5,0.2V546.3z"/>
	<path d="M188.6,555.1l10.7-15.6v-0.1h-9.8v-2.1h13v1.5l-10.6,15.6v0.1h10.8v2.1h-14.1V555.1z"/>
	<path d="M210.1,556.5v-8.2l-6.1-11.1h2.9l2.7,5.3c0.7,1.5,1.3,2.6,1.9,4h0.1c0.5-1.3,1.2-2.5,1.9-4l2.8-5.3h2.8l-6.4,11.1v8.2
		H210.1z"/>
	<path d="M220.6,553.5c1.1,0.7,2.7,1.3,4.4,1.3c2.5,0,4-1.3,4-3.3c0-1.8-1-2.8-3.6-3.8c-3.1-1.1-5.1-2.8-5.1-5.5
		c0-3,2.5-5.2,6.2-5.2c1.9,0,3.4,0.5,4.2,0.9l-0.7,2c-0.6-0.4-1.9-0.9-3.6-0.9c-2.6,0-3.6,1.6-3.6,2.9c0,1.8,1.2,2.7,3.8,3.7
		c3.3,1.3,4.9,2.8,4.9,5.7c0,3-2.2,5.6-6.7,5.6c-1.9,0-3.9-0.6-4.9-1.3L220.6,553.5z"/>
	<path d="M233.7,555.1l10.7-15.6v-0.1h-9.8v-2.1h13v1.5L237,554.4v0.1h10.8v2.1h-14.1V555.1z"/>
	<path d="M260.8,547.5h-7.5v6.9h8.4v2.1h-10.9v-19.3h10.5v2.1h-7.9v6.1h7.5V547.5z"/>
	<path d="M264.9,556.5v-19.3h2.7l6.2,9.7c1.4,2.3,2.5,4.3,3.4,6.3l0.1,0c-0.2-2.6-0.3-4.9-0.3-7.9v-8.1h2.3v19.3h-2.5l-6.1-9.8
		c-1.3-2.1-2.6-4.3-3.6-6.4l-0.1,0c0.1,2.4,0.2,4.7,0.2,7.9v8.2H264.9z"/>
	<path d="M286.2,537.3v19.3h-2.5v-19.3H286.2z"/>
	<path d="M300.5,547.5H293v6.9h8.4v2.1h-10.9v-19.3H301v2.1H293v6.1h7.5V547.5z"/>
	<path d="M312.8,556.5l-4.9-19.3h2.6l2.3,9.7c0.6,2.4,1.1,4.8,1.4,6.7h0.1c0.3-1.9,0.9-4.2,1.6-6.7l2.6-9.7h2.6l2.3,9.8
		c0.5,2.3,1.1,4.6,1.3,6.6h0.1c0.4-2.1,0.9-4.3,1.5-6.7l2.5-9.7h2.5l-5.5,19.3h-2.6l-2.4-10c-0.6-2.5-1-4.3-1.3-6.3h-0.1
		c-0.3,1.9-0.8,3.8-1.5,6.3l-2.7,10H312.8z"/>
	<path d="M333.9,537.5c1.3-0.2,3.1-0.4,4.8-0.4c2.7,0,4.4,0.5,5.6,1.6c0.9,0.9,1.5,2.2,1.5,3.7c0,2.5-1.6,4.2-3.6,4.9v0.1
		c1.5,0.5,2.3,1.9,2.8,3.9c0.6,2.7,1.1,4.5,1.5,5.3h-2.6c-0.3-0.6-0.7-2.2-1.3-4.6c-0.6-2.7-1.6-3.7-3.9-3.7h-2.3v8.3h-2.5V537.5z
		 M336.4,546.3h2.5c2.7,0,4.4-1.5,4.4-3.7c0-2.5-1.8-3.6-4.4-3.6c-1.2,0-2,0.1-2.5,0.2V546.3z"/>
	<path d="M365.8,546.7c0,6.6-4,10.1-9,10.1c-5.1,0-8.7-4-8.7-9.8c0-6.1,3.8-10.1,8.9-10.1C362.4,536.9,365.8,541,365.8,546.7z
		 M350.8,547c0,4.1,2.2,7.8,6.2,7.8c4,0,6.2-3.6,6.2-8c0-3.9-2-7.9-6.2-7.9C352.9,539,350.8,542.8,350.8,547z"/>
	<path d="M382.5,555.9c-0.9,0.5-2.7,0.9-5.1,0.9c-5.4,0-9.5-3.4-9.5-9.8c0-6.1,4.1-10.1,10.1-10.1c2.4,0,3.9,0.5,4.6,0.9l-0.6,2
		c-0.9-0.5-2.3-0.8-3.9-0.8c-4.5,0-7.5,2.9-7.5,7.9c0,4.7,2.7,7.7,7.4,7.7c1.5,0,3.1-0.3,4.1-0.8L382.5,555.9z"/>
	<path d="M385.7,556.5v-7.7l-2.4,1.7v-1.9l2.4-1.7v-9.7h2.5v7.9l3.8-2.8v1.9l-3.8,2.8v7.3h8.2v2.1H385.7z"/>
	<path d="M402.4,550.5l-2,6.1h-2.6l6.6-19.3h3l6.6,19.3h-2.7l-2.1-6.1H402.4z M408.8,548.5l-1.9-5.5c-0.4-1.3-0.7-2.4-1-3.5h-0.1
		c-0.3,1.1-0.6,2.3-1,3.5l-1.9,5.6H408.8z"/>
	<path d="M418.4,556.5l-4.9-19.3h2.6l2.3,9.7c0.6,2.4,1.1,4.8,1.4,6.7h0.1c0.3-1.9,0.9-4.2,1.6-6.7l2.6-9.7h2.6l2.3,9.8
		c0.5,2.3,1.1,4.6,1.3,6.6h0.1c0.4-2.1,0.9-4.3,1.5-6.7l2.5-9.7h2.5l-5.5,19.3H429l-2.4-10c-0.6-2.5-1-4.3-1.3-6.3h-0.1
		c-0.3,1.9-0.8,3.8-1.5,6.3l-2.7,10H418.4z"/>
	<path d="M439.2,553.5c1.1,0.7,2.7,1.3,4.4,1.3c2.5,0,4-1.3,4-3.3c0-1.8-1-2.8-3.6-3.8c-3.1-1.1-5.1-2.8-5.1-5.5
		c0-3,2.5-5.2,6.2-5.2c1.9,0,3.4,0.5,4.2,0.9l-0.7,2c-0.6-0.4-1.9-0.9-3.6-0.9c-2.6,0-3.6,1.6-3.6,2.9c0,1.8,1.2,2.7,3.8,3.7
		c3.3,1.3,4.9,2.8,4.9,5.7c0,3-2.2,5.6-6.7,5.6c-1.9,0-3.9-0.6-4.9-1.3L439.2,553.5z"/>
	<path d="M453.6,537.3h2.5v9.3h0.1c0.5-0.7,1-1.4,1.5-2.1l5.9-7.2h3.1l-7,8.2l7.5,11.1h-2.9l-6.3-9.5l-1.9,2.1v7.3h-2.5V537.3z"/>
	<path d="M471.6,537.3v19.3h-2.5v-19.3H471.6z"/>
	<path d="M489.4,555.9c-0.9,0.5-2.7,0.9-5.1,0.9c-5.4,0-9.5-3.4-9.5-9.8c0-6.1,4.1-10.1,10.1-10.1c2.4,0,3.9,0.5,4.6,0.9l-0.6,2
		c-0.9-0.5-2.3-0.8-3.9-0.8c-4.5,0-7.5,2.9-7.5,7.9c0,4.7,2.7,7.7,7.4,7.7c1.5,0,3.1-0.3,4.1-0.8L489.4,555.9z"/>
	<path d="M495,537.3v8.1h9.3v-8.1h2.5v19.3h-2.5v-9H495v9h-2.5v-19.3H495z"/>
	<path d="M186.7,571.5V583c0,4.3,1.9,6.1,4.5,6.1c2.8,0,4.7-1.9,4.7-6.1v-11.4h2.5v11.3c0,5.9-3.1,8.3-7.3,8.3c-4,0-6.9-2.2-6.9-8.2
		v-11.3H186.7z"/>
	<path d="M201.4,589.3l10.7-15.6v-0.1h-9.8v-2.1h13v1.5l-10.6,15.6v0.1h10.8v2.1h-14.1V589.3z M207.1,568.8c0-0.7,0.6-1.4,1.4-1.4
		c0.8,0,1.4,0.7,1.4,1.4c0,0.8-0.6,1.5-1.4,1.5C207.7,570.2,207.1,569.5,207.1,568.8z"/>
	<path d="M222.8,590.8v-8.2l-6.1-11.1h2.9l2.7,5.3c0.7,1.5,1.3,2.6,1.9,4h0.1c0.5-1.3,1.2-2.5,1.9-4l2.8-5.3h2.8l-6.4,11.1v8.2
		H222.8z"/>
	<path d="M238.6,573.7h-5.9v-2.1h14.3v2.1h-5.9v17.1h-2.5V573.7z"/>
	<path d="M249.2,571.5h2.5v9.3h0.1c0.5-0.7,1-1.4,1.5-2.1l5.9-7.2h3.1l-7,8.2l7.5,11.1h-2.9l-6.3-9.5l-1.9,2.1v7.3h-2.5V571.5z"/>
	<path d="M280.7,581c0,6.6-4,10.1-9,10.1c-5.1,0-8.7-4-8.7-9.8c0-6.1,3.8-10.1,8.9-10.1C277.3,571.2,280.7,575.2,280.7,581z
		 M265.7,581.3c0,4.1,2.2,7.8,6.2,7.8c4,0,6.2-3.6,6.2-8c0-3.9-2-7.9-6.2-7.9C267.8,573.2,265.7,577.1,265.7,581.3z"/>
	<path d="M287.1,590.8l-4.9-19.3h2.6l2.3,9.7c0.6,2.4,1.1,4.8,1.4,6.7h0.1c0.3-1.9,0.9-4.2,1.6-6.7l2.6-9.7h2.6l2.3,9.8
		c0.5,2.3,1.1,4.6,1.3,6.6h0.1c0.4-2.1,0.9-4.3,1.5-6.7l2.5-9.7h2.5l-5.5,19.3h-2.6l-2.4-10c-0.6-2.5-1-4.3-1.3-6.3h-0.1
		c-0.3,1.9-0.8,3.8-1.5,6.3l-2.7,10H287.1z"/>
	<path d="M308.1,590.8v-19.3h2.7l6.2,9.7c1.4,2.3,2.5,4.3,3.4,6.3l0.1,0c-0.2-2.6-0.3-4.9-0.3-7.9v-8.1h2.3v19.3h-2.5L314,581
		c-1.3-2.1-2.6-4.3-3.6-6.4l-0.1,0c0.1,2.4,0.2,4.7,0.2,7.9v8.2H308.1z"/>
	<path d="M329.5,571.5v19.3h-2.5v-19.3H329.5z"/>
	<path d="M333.8,571.5h2.5v9.3h0.1c0.5-0.7,1-1.4,1.5-2.1l5.9-7.2h3.1l-7,8.2l7.5,11.1h-2.9l-6.3-9.5l-1.9,2.1v7.3h-2.5V571.5z"/>
	<path d="M365.3,581c0,6.6-4,10.1-9,10.1c-5.1,0-8.7-4-8.7-9.8c0-6.1,3.8-10.1,8.9-10.1C361.9,571.2,365.3,575.2,365.3,581z
		 M350.3,581.3c0,4.1,2.2,7.8,6.2,7.8c4,0,6.2-3.6,6.2-8c0-3.9-2-7.9-6.2-7.9C352.4,573.2,350.3,577.1,350.3,581.3z M360.7,567.1
		l-3.7,3.3h-2l2.7-3.3H360.7z"/>
	<path d="M371.7,590.8l-4.9-19.3h2.6l2.3,9.7c0.6,2.4,1.1,4.8,1.4,6.7h0.1c0.3-1.9,0.9-4.2,1.6-6.7l2.6-9.7h2.6l2.3,9.8
		c0.5,2.3,1.1,4.6,1.3,6.6h0.1c0.4-2.1,0.9-4.3,1.5-6.7l2.5-9.7h2.5l-5.5,19.3h-2.6l-2.4-10c-0.6-2.5-1-4.3-1.3-6.3h-0.1
		c-0.3,1.9-0.8,3.8-1.5,6.3l-2.7,10H371.7z"/>
	<path d="M398.8,571.8c1.3-0.2,3.1-0.4,4.8-0.4c2.7,0,4.4,0.5,5.6,1.6c0.9,0.9,1.5,2.2,1.5,3.7c0,2.5-1.6,4.2-3.6,4.9v0.1
		c1.5,0.5,2.3,1.9,2.8,3.9c0.6,2.7,1.1,4.5,1.5,5.3h-2.6c-0.3-0.6-0.7-2.2-1.3-4.6c-0.6-2.7-1.6-3.7-3.9-3.7h-2.3v8.3h-2.5V571.8z
		 M401.3,580.6h2.5c2.7,0,4.4-1.5,4.4-3.7c0-2.5-1.8-3.6-4.4-3.6c-1.2,0-2,0.1-2.5,0.2V580.6z"/>
	<rect x="281.9" y="250" width="11" height="201"/>
	<rect x="269.9" y="255" width="11" height="195.9"/>
	<rect x="257.9" y="267.6" width="11" height="183.4"/>
	<rect x="245.7" y="277.2" width="11" height="173.8"/>
	<rect x="233.5" y="278.4" width="11" height="172.6"/>
	<rect x="221.3" y="281.9" width="11" height="169"/>
	<rect x="209.2" y="298.7" width="11" height="152.3"/>
	<rect x="197.1" y="302.7" width="11" height="148.3"/>
	<rect x="184.9" y="317.7" width="11" height="133.3"/>
	<rect x="172.6" y="345.8" width="11" height="105.2"/>
	<rect x="160.5" y="348.3" width="11" height="102.8"/>
	<rect x="148.4" y="355.2" width="11" height="95.8"/>
	<rect x="136.2" y="378.7" width="11" height="72.3"/>
	<rect x="124.1" y="394" width="11" height="57"/>
	<rect x="111.9" y="396.1" width="11" height="54.9"/>
	<rect x="99.8" y="397" width="11" height="54"/>
	<rect x="87.7" y="398" width="11" height="53"/>
</g>
</svg>
